<?xml version="1.0" encoding="utf-8"?>
<!-- Generator: Adobe Illustrator 27.7.0, SVG Export Plug-In . SVG Version: 6.00 Build 0)  -->
<svg version="1.1" id="Layer_1" xmlns="http://www.w3.org/2000/svg" xmlns:xlink="http://www.w3.org/1999/xlink" x="0px" y="0px"
	 viewBox="0 0 336 64" style="enable-background:new 0 0 336 64;" xml:space="preserve">
<style type="text/css">
	.st0{fill:#FFFFFF;}
	.st1{fill:#231F20;}
</style>
<g>
	<path class="st0" d="M18.3,26.9c-0.7,0.9-1.7,1.6-3,2.3c-1.4,0.7-3.1,1-5.2,1c-2.7,0-4.9-0.8-6.5-2.5C1.8,26.1,1,23.9,1,21.3v-4.6
		c0-2.6,0.8-4.8,2.4-6.5c1.6-1.7,3.7-2.5,6.3-2.5c2.7,0,4.7,0.6,6.1,1.9s2.1,3,2.2,5.1l0,0.1h-4.1c-0.1-1.2-0.5-2.1-1.1-2.8
		c-0.7-0.7-1.6-1-2.9-1c-1.3,0-2.4,0.5-3.2,1.6c-0.8,1-1.2,2.4-1.2,4v4.6c0,1.7,0.4,3,1.3,4c0.9,1,2,1.6,3.4,1.6
		c1,0,1.8-0.1,2.5-0.3c0.6-0.2,1.1-0.5,1.4-0.8v-4h-3.9v-3h8.3V26.9z"/>
	<path class="st0" d="M28.8,21.2v8.7h-4.4V8h8.2c2.5,0,4.4,0.6,5.8,1.7c1.4,1.1,2.1,2.7,2.1,4.8c0,1.1-0.3,2.1-0.9,2.9
		c-0.6,0.8-1.5,1.5-2.6,2c1.3,0.4,2.2,1,2.8,1.9c0.6,0.9,0.8,2,0.8,3.3v1.6c0,0.6,0.1,1.2,0.2,1.9c0.2,0.7,0.4,1.2,0.8,1.5v0.3h-4.5
		c-0.4-0.3-0.7-0.9-0.8-1.6c-0.1-0.8-0.2-1.5-0.2-2.1v-1.5c0-1.1-0.3-1.9-0.9-2.5c-0.6-0.6-1.4-0.9-2.5-0.9H28.8z M28.8,17.8h3.8
		c1.2,0,2.1-0.3,2.8-0.8c0.6-0.5,0.9-1.3,0.9-2.3c0-1-0.3-1.8-0.9-2.4c-0.6-0.6-1.5-0.9-2.7-0.9h-3.9V17.8z"/>
	<path class="st0" d="M60.5,20.3h-9.1v6.2H62v3.4h-15V8H62v3.4H51.4v5.5h9.1V20.3z"/>
	<path class="st0" d="M80.5,20.3h-9.1v6.2H82v3.4H67V8H82v3.4H71.4v5.5h9.1V20.3z"/>
	<path class="st0" d="M104.6,29.9h-4.4L91.5,15l-0.1,0v14.9H87V8h4.4l8.8,14.9l0.1,0V8h4.4V29.9z"/>
	<path class="st0" d="M138.3,8v14.5c0,2.5-0.8,4.3-2.4,5.7c-1.6,1.3-3.7,2-6.4,2c-2.6,0-4.7-0.7-6.3-2c-1.6-1.3-2.4-3.2-2.4-5.7V8
		h4.4v14.5c0,1.4,0.4,2.5,1.2,3.2c0.8,0.7,1.8,1.1,3.2,1.1c1.4,0,2.4-0.4,3.2-1.1c0.8-0.7,1.2-1.8,1.2-3.2V8H138.3z"/>
	<path class="st0" d="M148.8,22v7.9h-4.4V8h8.7c2.5,0,4.5,0.6,5.9,1.9c1.4,1.3,2.2,3,2.2,5.1c0,2.1-0.7,3.8-2.2,5
		c-1.4,1.3-3.4,1.9-5.9,1.9H148.8z M148.8,18.6h4.3c1.2,0,2.1-0.3,2.8-1c0.6-0.7,0.9-1.5,0.9-2.5c0-1.1-0.3-1.9-0.9-2.6
		c-0.6-0.7-1.6-1-2.8-1h-4.3V18.6z"/>
	<path class="st0" d="M176.7,29.9V8h7.4c2.6,0,4.6,0.5,6,1.5c1.4,1,2.2,2.5,2.2,4.5c0,1-0.3,1.9-0.8,2.7c-0.5,0.8-1.3,1.4-2.3,1.8
		c1.3,0.3,2.3,0.9,3,1.8c0.7,0.9,1,2,1,3.2c0,2.1-0.7,3.7-2.1,4.8c-1.4,1.1-3.3,1.6-5.9,1.6H176.7z M181.1,17.2h3.2
		c1.2,0,2.1-0.2,2.7-0.7c0.6-0.5,0.9-1.2,0.9-2.1c0-1-0.3-1.8-1-2.2c-0.6-0.5-1.6-0.7-2.8-0.7h-3V17.2z M181.1,20.2v6.3h4
		c1.2,0,2-0.3,2.7-0.8c0.6-0.5,0.9-1.3,0.9-2.2c0-1.1-0.3-1.9-0.8-2.4c-0.5-0.6-1.3-0.8-2.5-0.8H181.1z"/>
	<path class="st0" d="M203.2,21.2v8.7h-4.4V8h8.2c2.5,0,4.4,0.6,5.8,1.7c1.4,1.1,2.1,2.7,2.1,4.8c0,1.1-0.3,2.1-0.9,2.9
		c-0.6,0.8-1.5,1.5-2.6,2c1.3,0.4,2.2,1,2.8,1.9c0.6,0.9,0.8,2,0.8,3.3v1.6c0,0.6,0.1,1.2,0.2,1.9c0.2,0.7,0.4,1.2,0.8,1.5v0.3h-4.5
		c-0.4-0.3-0.7-0.9-0.8-1.6c-0.1-0.8-0.2-1.5-0.2-2.1v-1.5c0-1.1-0.3-1.9-0.9-2.5c-0.6-0.6-1.4-0.9-2.5-0.9H203.2z M203.2,17.8h3.8
		c1.2,0,2.1-0.3,2.8-0.8s0.9-1.3,0.9-2.3c0-1-0.3-1.8-0.9-2.4c-0.6-0.6-1.5-0.9-2.7-0.9h-3.9V17.8z"/>
	<path class="st0" d="M239,20.9c0,2.7-0.8,4.9-2.5,6.7c-1.7,1.8-3.9,2.6-6.6,2.6c-2.7,0-4.9-0.9-6.6-2.6c-1.7-1.8-2.5-4-2.5-6.7V17
		c0-2.7,0.8-4.9,2.5-6.6c1.7-1.8,3.9-2.6,6.6-2.6c2.7,0,4.9,0.9,6.6,2.6c1.7,1.8,2.6,4,2.6,6.6V20.9z M234.6,17
		c0-1.7-0.4-3.1-1.3-4.2c-0.9-1.1-2-1.6-3.5-1.6c-1.5,0-2.6,0.5-3.5,1.6c-0.8,1.1-1.2,2.5-1.2,4.2v4c0,1.7,0.4,3.1,1.2,4.2
		c0.8,1.1,2,1.6,3.5,1.6c1.5,0,2.7-0.5,3.5-1.6c0.8-1.1,1.3-2.5,1.3-4.2V17z"/>
	<path class="st0" d="M262,23L262,23l3.2-15h4.3l-5.1,21.9h-4.1l-4-14.4h-0.1l-4,14.4h-4.1L243,8h4.3l3.1,15l0.1,0l4.1-15h3.2
		L262,23z"/>
	<path class="st0" d="M286.1,24.2c0-0.8-0.3-1.5-0.9-2c-0.6-0.5-1.6-1-3.1-1.4c-2.6-0.8-4.6-1.6-5.9-2.7c-1.3-1-2-2.4-2-4.2
		c0-1.8,0.8-3.3,2.3-4.4c1.5-1.1,3.5-1.7,5.8-1.7c2.4,0,4.4,0.6,5.9,1.9c1.5,1.3,2.2,2.9,2.2,4.7l0,0.1h-4.2c0-1-0.3-1.8-1-2.5
		c-0.7-0.6-1.6-0.9-2.8-0.9c-1.2,0-2.1,0.3-2.7,0.8c-0.6,0.5-1,1.2-1,2c0,0.7,0.3,1.3,1,1.8c0.7,0.5,1.9,1,3.6,1.5
		c2.4,0.7,4.2,1.6,5.5,2.7c1.2,1.1,1.9,2.5,1.9,4.3c0,1.9-0.7,3.3-2.2,4.4c-1.5,1.1-3.4,1.6-5.8,1.6c-2.4,0-4.5-0.6-6.2-1.8
		c-1.8-1.2-2.6-2.9-2.6-5.2l0-0.1h4.3c0,1.3,0.4,2.3,1.2,2.9c0.8,0.6,1.9,0.9,3.3,0.9c1.2,0,2.1-0.2,2.7-0.7
		C285.8,25.7,286.1,25,286.1,24.2z"/>
	<path class="st0" d="M309.5,20.3h-9.1v6.2h10.6v3.4h-15V8H311v3.4h-10.6v5.5h9.1V20.3z"/>
	<path class="st0" d="M320.4,21.2v8.7h-4.4V8h8.2c2.5,0,4.4,0.6,5.8,1.7c1.4,1.1,2.1,2.7,2.1,4.8c0,1.1-0.3,2.1-0.9,2.9
		c-0.6,0.8-1.5,1.5-2.6,2c1.3,0.4,2.2,1,2.8,1.9c0.6,0.9,0.8,2,0.8,3.3v1.6c0,0.6,0.1,1.2,0.2,1.9c0.2,0.7,0.4,1.2,0.8,1.5v0.3H329
		c-0.4-0.3-0.7-0.9-0.8-1.6c-0.1-0.8-0.2-1.5-0.2-2.1v-1.5c0-1.1-0.3-1.9-0.9-2.5c-0.6-0.6-1.4-0.9-2.5-0.9H320.4z M320.4,17.8h3.8
		c1.2,0,2.1-0.3,2.8-0.8c0.6-0.5,0.9-1.3,0.9-2.3c0-1-0.3-1.8-0.9-2.4c-0.6-0.6-1.5-0.9-2.7-0.9h-3.9V17.8z"/>
</g>
<g>
	<path class="st1" d="M1,52V41.2h3.5c1.1,0,2,0.2,2.6,0.7c0.6,0.5,1,1.2,1,2.2c0,0.5-0.2,0.9-0.5,1.3c-0.3,0.4-0.7,0.7-1.2,0.8
		c0.7,0.1,1.2,0.5,1.5,1c0.4,0.5,0.6,1.1,0.6,1.7c0,1-0.3,1.7-1,2.3C7,51.7,6.1,52,5,52H1z M2.5,45.8h2.4c0.5,0,1-0.1,1.3-0.4
		c0.3-0.3,0.5-0.7,0.5-1.2c0-0.6-0.2-1-0.6-1.3c-0.4-0.3-0.9-0.4-1.6-0.4H2.5V45.8z M2.5,46.9v3.9H5c0.7,0,1.2-0.2,1.5-0.5
		C6.9,50,7.1,49.6,7.1,49c0-0.6-0.2-1.1-0.5-1.5c-0.3-0.4-0.8-0.5-1.4-0.5H2.5z"/>
	<path class="st1" d="M19.7,41.2v7.3c0,1.2-0.4,2.1-1.1,2.7c-0.8,0.6-1.8,0.9-3,0.9c-1.2,0-2.1-0.3-2.9-0.9s-1.1-1.5-1.1-2.7v-7.3
		h1.5v7.3c0,0.8,0.2,1.4,0.7,1.9c0.5,0.4,1.1,0.6,1.8,0.6c0.8,0,1.4-0.2,1.9-0.6c0.5-0.4,0.7-1,0.7-1.9v-7.3H19.7z"/>
	<path class="st1" d="M26.6,46.7l2.8-5.5H31l-3.8,7V52h-1.5v-3.9l-3.7-6.9h1.7L26.6,46.7z"/>
	<path class="st1" d="M46.7,47.6c0,1.3-0.4,2.4-1.2,3.3c-0.8,0.9-1.9,1.3-3.2,1.3c-1.3,0-2.3-0.4-3.1-1.3c-0.8-0.9-1.2-2-1.2-3.3
		v-1.9c0-1.3,0.4-2.4,1.2-3.3s1.8-1.3,3.1-1.3c1.3,0,2.4,0.4,3.2,1.3c0.8,0.9,1.2,2,1.2,3.3V47.6z M45.3,45.6c0-1-0.3-1.8-0.8-2.4
		c-0.5-0.6-1.3-0.9-2.2-0.9c-0.9,0-1.5,0.3-2,0.9c-0.5,0.6-0.8,1.4-0.8,2.4v1.9c0,1,0.3,1.8,0.8,2.4c0.5,0.6,1.2,0.9,2,0.9
		c0.9,0,1.6-0.3,2.2-0.9c0.5-0.6,0.8-1.4,0.8-2.5V45.6z"/>
	<path class="st1" d="M58.2,52h-1.5l-5.2-8.3l0,0V52h-1.5V41.2h1.5l5.2,8.3l0,0v-8.3h1.5V52z"/>
	<path class="st1" d="M63.5,50.9h5.1V52H62V41.2h1.5V50.9z"/>
	<path class="st1" d="M72.9,52h-1.5V41.2h1.5V52z"/>
	<path class="st1" d="M85,52h-1.5l-5.2-8.3l0,0V52h-1.5V41.2h1.5l5.2,8.3l0,0v-8.3H85V52z"/>
	<path class="st1" d="M95.2,47h-4.9v3.9h5.7V52h-7.2V41.2h7.1v1.1h-5.6v3.5h4.9V47z"/>
	<path class="st1" d="M99.8,51.6l-1.1,2.3h-0.9l0.5-2.3v-1.2h1.5V51.6z"/>
	<path class="st1" d="M115.5,48.5L115.5,48.5c0,1.1-0.3,1.9-1.1,2.6s-1.7,1-2.9,1c-1.2,0-2.2-0.4-3-1.3c-0.8-0.9-1.2-2-1.2-3.3v-1.9
		c0-1.3,0.4-2.4,1.2-3.3c0.8-0.9,1.8-1.3,3-1.3c1.2,0,2.2,0.3,2.9,1c0.7,0.7,1.1,1.5,1.1,2.6l0,0h-1.4c0-0.8-0.2-1.4-0.7-1.8
		c-0.4-0.4-1.1-0.7-1.9-0.7c-0.8,0-1.5,0.3-1.9,1c-0.5,0.7-0.7,1.5-0.7,2.4v1.9c0,1,0.2,1.8,0.7,2.5c0.5,0.7,1.1,1,1.9,1
		c0.8,0,1.4-0.2,1.9-0.7c0.4-0.4,0.7-1,0.7-1.8H115.5z"/>
	<path class="st1" d="M126.8,52h-1.5v-4.8h-5.2V52h-1.5V41.2h1.5v4.9h5.2v-4.9h1.5V52z"/>
	<path class="st1" d="M136.5,49.2H132l-1,2.8h-1.5l4.2-10.8h1.3L139,52h-1.5L136.5,49.2z M132.5,48h3.6l-1.8-4.9h0L132.5,48z"/>
	<path class="st1" d="M149.8,52h-1.5l-5.2-8.3l0,0V52h-1.5V41.2h1.5l5.2,8.3l0,0v-8.3h1.5V52z"/>
	<path class="st1" d="M161.5,50.6c-0.3,0.4-0.7,0.8-1.3,1.1c-0.6,0.3-1.5,0.5-2.5,0.5c-1.3,0-2.4-0.4-3.2-1.2
		c-0.8-0.8-1.3-1.9-1.3-3.2v-2.2c0-1.3,0.4-2.4,1.2-3.2c0.8-0.8,1.8-1.2,3-1.2c1.2,0,2.2,0.3,2.9,0.9c0.7,0.6,1.1,1.4,1.1,2.4l0,0
		H160c0-0.6-0.3-1.1-0.7-1.5c-0.4-0.4-1.1-0.6-1.9-0.6c-0.8,0-1.5,0.3-2,0.9c-0.5,0.6-0.8,1.4-0.8,2.3v2.2c0,1,0.3,1.7,0.8,2.4
		c0.6,0.6,1.3,0.9,2.1,0.9c0.6,0,1.1-0.1,1.5-0.2c0.4-0.2,0.7-0.3,0.8-0.6v-2.4h-2.4v-1.1h3.8V50.6z"/>
	<path class="st1" d="M171.5,47h-4.9v3.9h5.7V52h-7.2V41.2h7.1v1.1h-5.6v3.5h4.9V47z"/>
	<path class="st1" d="M187.4,42.4h-3.5V52h-1.5v-9.6H179v-1.1h8.4V42.4z"/>
	<path class="st1" d="M198.3,52h-1.5v-4.8h-5.2V52h-1.5V41.2h1.5v4.9h5.2v-4.9h1.5V52z"/>
	<path class="st1" d="M208.5,47h-4.9v3.9h5.7V52h-7.2V41.2h7.1v1.1h-5.6v3.5h4.9V47z"/>
	<path class="st1" d="M224.6,48.5L224.6,48.5c0,1.1-0.3,1.9-1.1,2.6s-1.7,1-2.9,1c-1.2,0-2.2-0.4-3-1.3c-0.8-0.9-1.2-2-1.2-3.3v-1.9
		c0-1.3,0.4-2.4,1.2-3.3c0.8-0.9,1.8-1.3,3-1.3c1.2,0,2.2,0.3,2.9,1c0.7,0.7,1.1,1.5,1.1,2.6l0,0h-1.4c0-0.8-0.2-1.4-0.7-1.8
		c-0.4-0.4-1.1-0.7-1.9-0.7c-0.8,0-1.5,0.3-1.9,1c-0.5,0.7-0.7,1.5-0.7,2.4v1.9c0,1,0.2,1.8,0.7,2.5c0.5,0.7,1.1,1,1.9,1
		c0.8,0,1.4-0.2,1.9-0.7c0.4-0.4,0.7-1,0.7-1.8H224.6z"/>
	<path class="st1" d="M229.2,50.9h5.1V52h-6.6V41.2h1.5V50.9z"/>
	<path class="st1" d="M238.6,52h-1.5V41.2h1.5V52z"/>
	<path class="st1" d="M244.4,41.2l3.4,8.8h0l3.4-8.8h1.9V52h-1.5v-4.3l0.1-4.4l0,0l-3.5,8.7h-1l-3.5-8.6l0,0l0.1,4.4V52h-1.5V41.2
		H244.4z"/>
	<path class="st1" d="M263,49.2h-4.5l-1,2.8h-1.5l4.2-10.8h1.3l4.1,10.8H264L263,49.2z M258.9,48h3.6l-1.8-4.9h0L258.9,48z"/>
	<path class="st1" d="M275.4,42.4h-3.5V52h-1.5v-9.6H267v-1.1h8.4V42.4z"/>
	<path class="st1" d="M284.5,47h-4.9v3.9h5.7V52h-7.2V41.2h7.1v1.1h-5.6v3.5h4.9V47z"/>
</g>
</svg>
