<?xml version="1.0" encoding="utf-8"?>
<!-- Generator: Adobe Illustrator 27.7.0, SVG Export Plug-In . SVG Version: 6.00 Build 0)  -->
<svg version="1.1" id="Layer_1" xmlns="http://www.w3.org/2000/svg" xmlns:xlink="http://www.w3.org/1999/xlink" x="0px" y="0px"
	 viewBox="0 0 172 42" style="enable-background:new 0 0 172 42;" xml:space="preserve">
<g>
	<path d="M18.8,29.5c-0.7,0.9-1.8,1.7-3.3,2.5c-1.5,0.7-3.3,1.1-5.6,1.1c-2.9,0-5.2-0.9-7-2.7c-1.8-1.8-2.7-4.1-2.7-6.9v-4.9
		c0-2.8,0.9-5.1,2.6-6.9C4.5,9.9,6.8,9,9.5,9c2.9,0,5,0.7,6.6,2.1s2.3,3.2,2.3,5.5l0,0.1H14c-0.1-1.2-0.5-2.2-1.2-3
		c-0.7-0.7-1.7-1.1-3.1-1.1c-1.4,0-2.6,0.6-3.5,1.7c-0.9,1.1-1.3,2.5-1.3,4.3v4.9c0,1.8,0.5,3.2,1.4,4.3c0.9,1.1,2.1,1.7,3.7,1.7
		c1.1,0,2-0.1,2.6-0.3c0.7-0.2,1.2-0.5,1.5-0.8v-4.3H9.9v-3.2h8.8V29.5z"/>
	<path d="M30,23.4v9.4h-4.7V9.3h8.8c2.7,0,4.8,0.6,6.3,1.8c1.5,1.2,2.3,2.9,2.3,5.1c0,1.2-0.3,2.3-0.9,3.1c-0.6,0.9-1.6,1.6-2.8,2.1
		c1.4,0.4,2.4,1.1,3,2c0.6,1,0.9,2.1,0.9,3.5v1.7c0,0.7,0.1,1.3,0.3,2.1c0.2,0.7,0.5,1.2,0.9,1.6v0.3h-4.8c-0.4-0.3-0.7-0.9-0.8-1.7
		c-0.1-0.8-0.2-1.6-0.2-2.3v-1.7c0-1.2-0.3-2.1-1-2.7c-0.6-0.6-1.5-1-2.7-1H30z M30,19.7H34c1.3,0,2.3-0.3,3-0.8
		c0.6-0.6,1-1.4,1-2.5c0-1.1-0.3-1.9-1-2.6c-0.6-0.6-1.6-0.9-2.9-0.9H30V19.7z"/>
	<path d="M63.9,22.4h-9.7v6.7h11.3v3.6h-16V9.3h16v3.6H54.2v5.9h9.7V22.4z"/>
	<path d="M85.3,22.4h-9.7v6.7h11.3v3.6h-16V9.3h16v3.6H75.6v5.9h9.7V22.4z"/>
	<path d="M111.2,32.7h-4.7l-9.5-16l-0.1,0v16h-4.7V9.3H97l9.5,16l0.1,0v-16h4.7V32.7z"/>
	<path d="M147.3,9.3v15.5c0,2.6-0.9,4.7-2.6,6.1c-1.7,1.4-4,2.1-6.8,2.1c-2.8,0-5.1-0.7-6.8-2.1c-1.7-1.4-2.6-3.5-2.6-6.1V9.3h4.7
		v15.5c0,1.5,0.4,2.7,1.2,3.5c0.8,0.8,2,1.1,3.4,1.1c1.5,0,2.6-0.4,3.5-1.1c0.8-0.8,1.3-1.9,1.3-3.5V9.3H147.3z"/>
	<path d="M158.5,24.2v8.5h-4.7V9.3h9.3c2.7,0,4.8,0.7,6.4,2.1c1.5,1.4,2.3,3.2,2.3,5.4c0,2.2-0.8,4-2.3,5.4c-1.5,1.4-3.7,2-6.4,2
		H158.5z M158.5,20.6h4.6c1.3,0,2.3-0.4,3-1.1c0.7-0.7,1-1.6,1-2.7c0-1.1-0.3-2.1-1-2.8c-0.7-0.7-1.7-1.1-3-1.1h-4.6V20.6z"/>
</g>
</svg>
